<svg width="77" height="40" viewBox="0 0 77 40" fill="none" xmlns="http://www.w3.org/2000/svg">
<path d="M18.7417 11.5936L18.1402 20.7926H23.4325L31.2311 0H26.316L22.8139 9.32534L23.4174 0H18.1879L10.3899 20.7926H15.3047L18.7417 11.5936Z" fill="#363E61"/>
<path d="M28.9855 20.7926L36.7832 0H31.8687L24.071 20.7926H28.9855Z" fill="#363E61"/>
<path d="M76.1403 12.4439C76.0332 12.4708 65.9126 15.2121 54.239 18.3748L54.8185 16.7603H49.085L50.9688 11.7197H55.694L57.1481 7.84474H52.4229L54.0428 3.4658H59.0199L60.3406 0H45.3443L40.1951 6.23806L42.5727 0H37.595L29.8596 20.7926H34.7744L38.0769 12.0976L38.3031 20.7926L45.3731 20.7771C31.9762 24.4072 19.2755 27.8493 19.2755 27.8493C12.0917 29.8658 3.90069 25.4707 9.82342 13.6256C2.95565 21.6909 -3.52286 32.4223 2.19955 37.3639C7.74439 42.1527 14.6754 39.3175 19.4012 37.4271C24.1271 35.5367 76.3609 12.8537 76.3609 12.8537C76.8648 12.6016 76.7707 12.2865 76.1403 12.4439ZM43.1787 19.4065L42.8637 8.56924L50.2945 0.410752L43.1787 19.4065Z" fill="#363E61"/>
</svg>
